HIERARCHY
ROOT simHips
{
  OFFSET -174.591 98.2095 26.4763
  CHANNELS 6 Xposition Yposition Zposition Zrotation Xrotation Yrotation
  JOINT simSpine
  {
    OFFSET -0.000355721 21.3001 -0.016921
    CHANNELS 3 Zrotation Xrotation Yrotation
    JOINT simLeftArm
    {
      OFFSET 13.5181 21.3012 0
      CHANNELS 3 Zrotation Xrotation Yrotation
      JOINT simLeftForeArm
      {
        OFFSET 24.5783 0 0
        CHANNELS 3 Zrotation Xrotation Yrotation
        JOINT simLeftHand
        {
          OFFSET 24.5783 0 0
          CHANNELS 3 Zrotation Xrotation Yrotation
          End Site
          {
            OFFSET 7.32568 1.52588e-05 0.0169305
          }
        }
      }
    }
    JOINT simHead
    {
      OFFSET 0 27.4458 -0.00489235
      CHANNELS 3 Zrotation Xrotation Yrotation
      End Site
      {
        OFFSET 0 0 0
      }
    }
    JOINT simRightArm
    {
      OFFSET -13.5174 21.3012 0
      CHANNELS 3 Zrotation Xrotation Yrotation
      JOINT simRightForeArm
      {
        OFFSET -24.5783 0 0
        CHANNELS 3 Zrotation Xrotation Yrotation
        JOINT simRightHand
        {
          OFFSET -24.5783 0 0
          CHANNELS 3 Zrotation Xrotation Yrotation
          End Site
          {
            OFFSET -7.32568 1.52588e-05 0.0169305
          }
        }
      }
    }
  }
  JOINT simRightUpLeg
  {
    OFFSET -8.44614 -9.41038 0.835684
    CHANNELS 3 Zrotation Xrotation Yrotation
    JOINT simRightLeg
    {
      OFFSET 0 -40.9639 0
      CHANNELS 3 Zrotation Xrotation Yrotation
      JOINT simRightFoot
      {
        OFFSET 0 -40.9639 0
        CHANNELS 3 Zrotation Xrotation Yrotation
        End Site
        {
          OFFSET 0.50614 -9.67405 14.6709
        }
      }
    }
  }
  JOINT simLeftUpLeg
  {
    OFFSET 8.44614 -9.41038 0.835684
    CHANNELS 3 Zrotation Xrotation Yrotation
    JOINT simLeftLeg
    {
      OFFSET 0 -40.9639 0
      CHANNELS 3 Zrotation Xrotation Yrotation
      JOINT simLeftFoot
      {
        OFFSET 0 -40.9639 0
        CHANNELS 3 Zrotation Xrotation Yrotation
        End Site
        {
          OFFSET -0.50614 -9.67405 14.6709
        }
      }
    }
  }
}
MOTION
Frames:	24
Frame Time:	0.0333333
-2.88812 89.9224 -12.0977 8.22995 -10.4573 -20.6768 -16.1202 9.11228 11.3757 1.59331 7.86834 -96.7275 47.5633 -14.2823 -72.3116 44.1021 25.8955 -2.37566 -14.6061 12.1727 35.644 -51.5163 -18.1641 44.859 -49.2662 -25.2321 32.3585 -18.5454 -33.8805 -22.0787 -21.5145 -23.3111 -8.18449 17.529 57.347 -8.96462 -15.9276 -20.3319 -28.3097 25.3307 -18.9001 -4.87486 -35.9442 43.9144 15.7296 -3.59648 -0.291627 16.3193 
-8.18994 91.022 -14.1061 8.18886 -9.79334 -10.6241 -17.6021 7.38508 11.3517 1.77326 11.9591 -94.7196 46.5742 -13.0936 -70.4286 40.4024 23.066 -3.43044 -12.9363 7.63553 20.0531 -46.5521 -11.2475 54.9885 -50.4754 -26.2299 32.9257 -31.0412 -21.3744 -23.1505 -20.1326 -18.5099 -18.3561 16.0733 55.0283 -7.89363 -18.2222 -18.9905 -29.9445 22.3475 -17.6597 -12.5796 -51.8411 52.2368 27.8912 -3.39026 -1.32833 15.6208 
-13.0649 91.6328 -16.0098 7.40208 -8.01701 -1.71841 -18.6895 6.29956 14.1716 6.36129 16.3521 -94.7968 45.2014 -11.5558 -67.8944 37.4336 18.6311 -3.23774 -7.70582 -2.69084 0.865584 -37.2285 -4.30071 60.1693 -50.6542 -26.3788 33.0083 -39.4188 -15.1047 -25.4782 -17.7648 -16.9687 -28.061 15.2334 53.5544 -7.31302 -20.3066 -16.7723 -31.5908 22.0158 -14.4543 -16.9786 -64.2473 55.8989 37.9723 -1.061 -1.48894 18.8936 
-17.803 92.3105 -18.0225 6.37105 -5.74674 8.10002 -19.6458 6.85526 16.4291 11.5693 22.9039 -97.3299 43.9652 -10.2761 -65.6849 35.4808 16.7704 -3.31846 -4.34873 -18.8652 -17.4648 -30.3383 4.12932 61.111 -50.5184 -26.2727 32.9504 -45.2511 -15.953 -33.7342 -15.1264 -18.2871 -32.3559 15.2567 53.6035 -7.36401 -16.9365 -14.5843 -31.878 22.468 -11.349 -21.7424 -67.1293 56.4801 40.325 0.341023 -0.188077 20.4838 
-22.201 93.0019 -20.3342 5.05085 -3.20186 19.3533 -20.0398 10.0022 14.8386 11.1177 30.7549 -98.836 43.1199 -9.45305 -64.2079 34.3626 14.855 -5.39195 -1.32271 -33.2411 -23.6027 -32.5347 13.1799 63.132 -48.5333 -24.6142 31.992 -45.2565 -14.466 -35.7301 -11.9127 -23.4309 -25.0319 16.9037 56.3749 -8.70291 -12.0248 -10.8276 -29.1586 24.2022 -10.8739 -25.2047 -63.7157 55.7538 37.4796 0.324274 1.80911 20.4645 
-26.0197 93.3031 -23.032 3.69001 -1.16116 30.3692 -18.598 14.799 11.6479 8.16299 38.4597 -99.3695 42.5157 -8.88904 -63.1674 33.3501 14.0153 -7.13765 5.83187 -38.613 -8.59588 -42.4422 21.6362 68.1225 -46.9216 -23.3386 31.2135 -31.7364 -14.82 -21.2499 -8.76355 -29.3502 -8.87671 19.7754 60.351 -11.0505 -7.44162 -7.70858 -19.1117 26.1672 -12.2586 -26.3079 -58.795 54.4915 33.4183 -0.493619 2.74409 20.3453 
-29.5869 93.2564 -25.5621 2.90347 0.329625 42.449 -15.8556 20.3089 9.13801 4.51467 44.4232 -100.512 42.6384 -9.0019 -63.3775 28.373 14.2003 -7.4252 11.095 -31.7312 7.98054 -45.1093 27.327 68.1353 -44.7591 -21.6303 30.0965 -33.8606 -0.528638 -4.29413 -6.99498 -30.1561 8.12533 18.7418 59.0334 -9.98982 -2.86919 -10.1756 -6.66817 27.5357 -14.3413 -25.7302 -52.3212 52.3679 28.1356 -1.11443 3.89504 20.5429 
-32.6735 92.6846 -27.6823 2.06788 2.33766 54.9044 -12.5499 23.8147 7.31072 1.05656 50.412 -99.856 43.0293 -9.3668 -64.0506 23.1001 13.9688 -8.60553 10.9261 -18.6069 7.38337 -42.6323 32.0984 63.9362 -44.9538 -21.7785 30.1957 -40.1921 -0.570012 -9.94601 -8.91094 -27.2338 17.0013 15.0275 53.1927 -6.84511 1.81099 -16.7341 -1.73741 27.5148 -16.1688 -23.444 -44.3456 48.8892 22.0069 -5.28119 7.29207 14.1389 
-35.0711 91.6494 -29.4792 0.187237 4.25131 65.6742 -9.31402 24.4663 5.41895 -2.32747 55.992 -93.5586 43.1363 -9.39517 -64.1418 20.1802 14.3838 -10.947 10.0326 -6.11684 -8.38272 -41.2169 36.7766 61.6912 -46.6477 -23.1157 31.0716 -38.6061 -10.8009 -18.6054 -12.9488 -26.5169 10.7618 13.4268 50.0134 -5.61792 -0.511728 -21.8761 -7.51531 27.5706 -17.4486 -20.7059 -40.652 46.9428 19.5862 -15.8627 3.8422 8.4984 
-36.8236 90.491 -31.9764 -4.03502 4.11525 70.9587 -4.9625 22.3169 5.31773 -11.1478 61.2326 -77.9697 42.6254 -8.98967 -63.3551 16.4037 17.599 -12.1645 8.32327 1.32527 -22.2922 -41.3436 40.9617 60.0489 -47.6519 -23.9196 31.5741 -41.0816 -3.85687 -10.667 -14.8076 -30.8331 3.87242 13.4351 50.0507 -5.61964 -4.52128 -22.6776 -11.2608 26.4024 -11.1789 -14.1675 -25.0075 34.6852 8.97084 -12.8794 -17.3536 8.24085 
-38.5121 89.4942 -35.0202 -8.11491 3.1899 73.6416 -1.54935 20.7741 3.42625 -34.2898 64.1662 -46.7992 41.8363 -8.27762 -62.0104 17.8205 20.1311 -10.9646 6.98854 1.69996 -26.0965 -40.5678 42.0049 57.1966 -48.0797 -24.2652 31.7851 -47.3077 4.05393 -1.78567 -16.8477 -36.0875 0.197182 13.7806 50.789 -5.90781 -1.10471 -21.2793 -9.8076 25.0476 -7.69542 -0.0828578 -13.1649 22.647 3.66888 -15.9933 -22.4857 5.36177 
-40.9533 89.68 -36.6962 -10.4152 3.12887 77.3872 -2.96904 23.2611 0.648444 -49.6761 57.0978 -22.1885 40.0803 -6.80465 -59.0823 16.2599 18.9286 -8.55542 11.1526 -2.52372 -27.51 -28.7471 38.6222 46.0817 -47.829 -24.0615 31.661 -46.9371 2.90298 -0.709566 -18.8195 -38.8047 -2.19238 13.3314 49.8529 -5.57697 -0.664478 -18.5458 -11.884 26.8951 -13.6816 3.30901 -14.3667 24.1159 4.03915 -17.179 -19.3092 -0.029976 
-42.9836 90.686 -37.8781 -9.45693 3.8216 80.9326 -5.545 26.7814 -0.253513 -52.9271 50.1563 -10.9127 36.3822 -4.14458 -53.1376 15.9062 16.6323 -8.04783 12.2562 -3.15744 -29.2508 -15.3989 34.8983 33.4198 -47.1361 -23.5031 31.3155 -44.0184 -4.37515 -8.50845 -22.2191 -36.5925 -5.30265 12.1251 47.1068 -4.73203 0.612936 -15.4979 -11.7508 27.6546 -19.1081 2.29356 -19.8129 28.8815 6.14461 -15.6313 -14.0294 -0.554529 
-43.6892 91.3455 -39.9853 -8.55463 2.66492 80.448 -4.30382 26.7737 1.05031 -56.5653 46.641 -1.13103 32.2663 -1.80099 -46.7908 15.071 16.5708 -6.53111 6.61852 1.06272 -29.1027 -9.45071 31.733 24.484 -47.8242 -24.0564 31.6576 -41.2003 -11.9189 -16.7406 -23.8734 -34.0796 -10.3669 10.7937 43.6976 -3.87795 2.74414 -11.5215 -6.37645 25.9006 -18.5111 -1.72371 -18.8912 27.8173 5.68176 -14.1986 -15.7912 3.08016 
-43.9431 91.8048 -42.16 -8.90112 0.72492 76.3327 -3.32336 24.7186 3.65126 -63.4901 40.5489 11.4521 30.4992 -0.970543 -44.1293 11.4504 19.956 -5.05151 3.12281 3.80147 -27.7876 -8.97322 29.0256 20.4039 -49.5595 -25.5131 32.5285 -40.9516 -16.0201 -21.1157 -21.8057 -34.2531 -11.2575 9.57212 40.1995 -3.13676 3.65718 -6.7127 -2.32258 26.064 -16.3298 -1.53126 -17.4754 26.2993 5.03903 -12.1256 -18.7536 7.06097 
-44.2927 92.3616 -43.576 -9.31043 0.338532 71.7742 -5.18434 22.5463 5.59794 -69.2819 32.1643 24.3461 30.1098 -0.800809 -43.5469 11.4646 15.3051 -4.74502 3.1621 5.09131 -26.3334 -9.90927 26.6458 20.4396 -51.2174 -26.8535 33.2688 -40.9418 -15.0002 -19.9019 -19.3784 -34.8503 -9.54117 8.30134 36.1543 -2.40066 3.46356 -2.71032 -0.604332 27.1112 -16.241 0.0540747 -19.3547 28.2988 5.85304 -10.8085 -19.0968 9.76529 
-44.625 93.0967 -44.7568 -7.86918 0.80209 69.079 -7.22074 21.7291 5.8506 -74.0426 26.1173 35.4588 29.2923 -0.459602 -42.3287 13.4188 3.624 -2.94246 2.93342 6.16205 -25.4052 -11.3296 26.0448 20.1796 -53.4238 -28.7112 34.2325 -38.9601 -17.3476 -19.5864 -18.6159 -32.0962 -8.1315 6.72979 30.4986 -1.60469 3.83704 0.359305 1.04564 27.4751 -18.7788 -0.681865 -25.4304 35.0635 9.01044 -7.49295 -16.6357 13.3673 
-44.7733 93.4738 -46.015 -6.06448 0.683479 67.5656 -7.39823 21.3327 6.53303 -76.8921 22.2619 42.1882 27.7745 0.12064 -40.0807 11.7818 -1.99664 -2.01929 2.06095 6.82236 -26.4671 -11.1859 26.9097 14.9476 -56.4166 -31.2686 35.4281 -35.0183 -24.4114 -20.0278 -17.7389 -27.8531 -5.60994 5.16516 24.0571 -0.9615 5.168 2.38392 1.24287 28.3858 -23.4478 -2.46614 -34.9863 43.2482 15.0282 -3.30493 -11.2592 16.8207 
-44.5077 93.3639 -47.3606 -6.08086 0.128558 64.8225 -6.88035 18.9629 8.47234 -74.542 16.2654 44.5799 27.3354 0.275875 -39.4362 8.3928 4.94399 -4.05097 2.43589 5.4056 -28.3461 -7.58018 26.9987 5.90937 -59.3976 -33.8524 36.4882 -28.2052 -30.9892 -13.8891 -15.6673 -26.1302 0.711364 4.09353 18.6448 -0.6377 7.83553 4.19479 -1.37962 29.2955 -25.934 -1.73632 -39.256 46.108 18.1968 -6.22782 -10.063 6.4083 
-43.6029 93.2145 -48.8597 -6.66865 -0.742877 61.0698 -5.84105 15.4158 10.3491 -67.7856 8.86415 44.5152 28.2637 -0.0604186 -40.8023 7.56542 8.67576 -7.38324 2.5216 1.93963 -29.266 0.33447 26.602 -5.10996 -63.0885 -37.065 37.5998 -14.023 -38.6793 -1.97455 -13.5234 -24.5424 6.04212 3.03258 13.0667 -0.44439 9.84026 6.65736 -2.75409 27.7168 -24.3616 1.63023 -37.005 44.6684 16.5903 -4.87232 -15.8496 -3.04874 
-41.7449 93.2516 -49.82 -6.38535 -2.71781 58.1642 -3.80823 11.032 9.84827 -59.8125 5.91563 42.3604 29.55 -0.565284 -42.7121 9.10306 2.69066 -6.02021 2.31531 2.23571 -27.5048 11.6316 26.5924 -14.4663 -64.6326 -38.4042 37.9947 9.25313 -42.3306 18 -11.88 -20.1797 5.56943 1.77477 7.15533 -0.35006 12.0052 10.0421 0.372285 25.2802 -18.4326 3.03505 -31.9443 40.918 12.9029 2.11728 -19.6643 2.30154 
-39.6117 93.5546 -50.1469 -5.51644 -5.29291 57.3653 -2.08056 5.64994 6.5688 -50.7312 11.0603 34.7438 31.4008 -1.3818 -45.4831 14.2196 -0.573057 -5.91325 3.4206 6.65634 -24.7461 24.8867 27.5815 -24.0058 -62.1619 -36.2593 37.3427 31.0843 -41.4133 40.5819 -10.6545 -17.5646 1.96096 1.77758 8.1402 -0.321142 11.1318 11.3439 4.58834 21.6531 -10.091 -1.25309 -23.1939 32.6914 7.59478 3.2435 -24.7173 6.37415 
-38.6734 94.603 -50.117 -2.853 -8.35127 58.2151 -3.14945 2.3824 1.22805 -36.9009 19.4677 16.0094 31.7845 -1.56449 -46.0616 20.0638 -0.447563 -8.93261 6.21029 11.3903 -22.5633 39.1527 26.7326 -29.6746 -58.4983 -33.0712 36.1833 36.0943 -47.4204 47.6338 -10.9125 -20.7 -1.12909 4.35285 22.1765 -0.858786 9.02914 13.274 6.36387 20.1049 -3.41188 -6.13442 -18.8861 27.7277 5.39602 1.79743 -24.5594 9.38331 
-38.5513 96.137 -49.6479 2.45997 -13.467 58.9342 -6.83462 2.78889 -5.59289 -23.0065 24.6082 -6.13459 31.9924 -1.66584 -46.376 25.3447 -0.577056 -11.8469 13.169 18.7378 -20.4353 48.6885 26.7491 -25.2931 -54.0171 -29.2103 34.4767 30.4325 -43.9059 43.8748 -10.8672 -25.1902 -1.76606 9.28023 39.5591 -3.68718 10.4366 30.9372 6.7102 20.5393 9.36302 -6.1507 -12.3818 18.8308 2.65375 -0.763832 -19.8936 7.02817 
